<?xml version="1.0" standalone="no"?>
<!DOCTYPE svg PUBLIC "-//W3C//DTD SVG 20010904//EN"
 "http://www.w3.org/TR/2001/REC-SVG-20010904/DTD/svg10.dtd">
<svg version="1.0" xmlns="http://www.w3.org/2000/svg"
 width="376.000000pt" height="138.000000pt" viewBox="0 0 376.000000 138.000000"
 preserveAspectRatio="xMidYMid meet">

<g transform="translate(0.000000,138.000000) scale(0.100000,-0.100000)"
fill="#000000" stroke="none">
<path d="M570 985 l0 -215 120 0 120 0 0 45 0 45 -75 0 -75 0 0 170 0 170 -45
0 -45 0 0 -215z"/>
<path d="M1230 1155 c0 -38 -3 -45 -19 -45 -25 0 -24 -37 1 -43 16 -5 18 -17
18 -104 0 -129 21 -167 103 -187 26 -6 27 -5 27 38 0 36 -4 46 -20 51 -18 6
-20 15 -20 101 0 75 3 96 15 100 8 4 15 15 15 25 0 10 -7 19 -15 19 -11 0 -15
12 -15 45 l0 45 -45 0 -45 0 0 -45z"/>
<path d="M1439 1152 l-27 -48 47 6 c41 5 48 9 69 48 l23 42 -43 0 c-41 0 -44
-3 -69 -48z"/>
<path d="M2100 1032 c0 -142 3 -171 17 -192 40 -58 100 -78 164 -56 38 13 48
13 91 -1 45 -14 52 -14 94 2 77 29 84 51 84 248 l0 167 -45 0 -45 0 0 -158 c0
-163 -4 -182 -41 -182 -43 0 -49 23 -49 186 l0 154 -45 0 -45 0 -2 -162 -3
-163 -29 -10 c-24 -8 -31 -6 -48 14 -17 22 -19 38 -16 173 l3 148 -42 0 -43 0
0 -168z"/>
<path d="M3200 985 l0 -215 45 0 44 0 3 83 3 82 60 -82 60 -83 53 0 c40 0 51
3 46 13 -5 6 -34 48 -66 91 -32 44 -58 84 -58 90 0 6 23 40 50 76 l49 65 -52
3 c-49 3 -54 1 -77 -29 -14 -18 -35 -44 -47 -58 l-22 -26 -1 103 0 102 -45 0
-45 0 0 -215z"/>
<path d="M931 1088 c-74 -38 -108 -108 -91 -185 12 -52 39 -85 93 -112 38 -19
56 -22 91 -17 50 8 101 39 125 75 l16 24 -92 -6 c-82 -5 -95 -4 -118 14 -14
11 -25 25 -25 30 0 5 53 9 120 9 l120 0 0 39 c0 109 -137 183 -239 129z m120
-78 c10 -6 19 -17 19 -25 0 -12 -15 -15 -65 -15 -67 0 -81 11 -47 36 21 16 66
18 93 4z"/>
<path d="M1671 1096 c-48 -27 -66 -100 -35 -145 9 -12 36 -31 60 -41 24 -11
44 -24 44 -29 0 -16 -21 -24 -33 -12 -17 17 -87 14 -87 -4 0 -40 29 -72 82
-88 33 -11 88 13 108 46 38 62 16 118 -61 157 -21 11 -39 25 -39 30 0 6 25 10
55 10 32 0 55 4 55 11 0 36 -56 79 -102 79 -13 -1 -34 -7 -47 -14z"/>
<path d="M2705 1092 c-92 -43 -126 -133 -84 -219 27 -54 60 -81 112 -93 138
-31 252 113 188 237 -39 77 -138 111 -216 75z m122 -94 c35 -37 34 -78 -2
-113 -31 -32 -74 -32 -109 0 -34 32 -35 77 -1 110 32 33 84 34 112 3z"/>
<path d="M2990 940 l0 -170 45 0 45 0 0 103 c0 95 2 105 23 124 12 11 28 22
36 25 8 2 14 20 15 46 3 47 4 46 -42 33 -20 -6 -32 -6 -32 0 0 5 -20 9 -45 9
l-45 0 0 -170z"/>
<path d="M1227 734 c-4 -4 -7 -25 -7 -46 l0 -38 50 0 50 0 0 -170 0 -170 45 0
45 0 0 170 0 170 51 0 50 0 -3 43 -3 42 -136 3 c-74 1 -138 -1 -142 -4z"/>
<path d="M2660 690 c0 -43 -3 -50 -20 -50 -13 0 -20 -7 -20 -19 0 -10 9 -21
20 -24 18 -5 20 -14 20 -109 0 -114 8 -136 60 -163 48 -25 60 -20 60 23 0 25
-7 43 -20 55 -17 14 -20 29 -20 103 0 77 2 86 20 91 11 3 20 13 20 23 0 10 -9
20 -20 23 -16 4 -20 14 -20 51 l0 46 -40 0 -40 0 0 -50z"/>
<path d="M2847 733 c-4 -3 -7 -100 -7 -215 l0 -208 45 0 45 0 0 104 c0 101 1
105 26 125 34 27 50 26 79 -4 23 -22 25 -31 25 -125 l0 -100 46 0 47 0 -5 115
c-5 127 -13 148 -79 193 -28 20 -43 23 -86 20 l-53 -5 0 54 0 53 -38 0 c-21 0
-42 -3 -45 -7z"/>
<path d="M1605 626 c-42 -18 -83 -69 -91 -112 -20 -108 43 -193 150 -202 178
-15 253 219 98 306 -45 25 -110 28 -157 8z m133 -102 c30 -34 28 -70 -7 -105
-44 -43 -98 -34 -126 22 -22 41 -5 86 39 105 38 16 64 10 94 -22z"/>
<path d="M1974 624 c-43 -22 -65 -45 -80 -81 -31 -72 -10 -152 52 -199 33 -25
46 -29 106 -29 73 0 86 -11 46 -39 -18 -13 -40 -15 -117 -9 l-94 6 18 -26 c9
-15 31 -35 49 -46 99 -61 225 -14 256 97 5 20 10 105 10 189 l0 151 -109 0
c-77 1 -116 -4 -137 -14z m134 -100 c27 -31 28 -63 2 -97 -26 -33 -63 -41 -99
-23 -31 16 -41 34 -41 71 0 38 11 56 44 71 38 16 64 10 94 -22z"/>
<path d="M2348 620 c-76 -41 -107 -142 -66 -219 13 -25 35 -53 49 -64 31 -22
94 -32 144 -23 35 7 105 59 105 78 0 7 -30 9 -85 6 -74 -5 -88 -3 -110 14 -51
40 -35 48 96 48 l122 0 -6 40 c-15 111 -146 174 -249 120z m133 -80 c10 -6 19
-17 19 -25 0 -12 -15 -15 -70 -15 -38 0 -70 3 -70 7 0 3 7 15 17 25 18 20 73
24 104 8z"/>
<path d="M3280 629 c-62 -25 -100 -85 -100 -157 0 -57 27 -104 80 -140 66 -45
195 -17 231 50 11 21 10 21 -73 16 -51 -3 -92 -1 -104 5 -24 13 -44 39 -38 49
3 5 59 8 125 8 l120 0 -7 38 c-18 105 -135 170 -234 131z m122 -96 c30 -27 21
-33 -52 -33 -38 0 -70 3 -70 7 0 3 7 15 17 25 20 23 80 24 105 1z"/>
<path d="M3560 475 l0 -165 45 0 45 0 0 98 c0 89 2 100 23 119 12 11 30 23 40
26 12 5 17 17 17 45 l0 39 -85 1 -85 1 0 -164z"/>
<path d="M20 540 l0 -40 585 0 585 0 0 40 0 40 -585 0 -585 0 0 -40z"/>
</g>
</svg>
