<svg id="Layer_1" data-name="Layer 1" xmlns="http://www.w3.org/2000/svg" viewBox="0 0 874.34 249.06">
    <defs>
        <style>
            .cls-1 {
                fill: #686e7f;
            }
        </style>
    </defs>
    <title>LetsWork - [SVG]</title>
    <path id="L" class="cls-1" d="M216.18,14.37V96.46h36.67v22.77H193.41V14.37Z" transform="translate(-63.64 -14.37)" />
    <path id="E1" class="cls-1"
        d="M337.12,78.19a38.2,38.2,0,0,1-.39,5.53H279.09A18.17,18.17,0,0,0,304.83,94.4H333.9a41.17,41.17,0,1,1,3.22-16.21Zm-24.57-8.11a18,18,0,0,0-32.3,0Z"
        transform="translate(-63.64 -14.37)" />
    <path id="T" class="cls-1"
        d="M348.32,49.88h-8.24V37.15h8.24V14.37h22.77V37.15h8.23V49.88h-8.23V89.64a6.9,6.9,0,0,0,7,6.82h2.06v22.77H378a29.62,29.62,0,0,1-29.72-29.59Z"
        transform="translate(-63.64 -14.37)" />
    <path id="_" data-name="&apos;" class="cls-1" d="M427.83,14.37,412.9,40.23H390.26l14.92-25.86Z"
        transform="translate(-63.64 -14.37)" />
    <path id="S" class="cls-1"
        d="M438.51,91.44h23.16a2.74,2.74,0,0,0-.39,1.55,3.41,3.41,0,0,0,6.82,0,3.6,3.6,0,0,0-2.44-3.35l-10.3-4.12a25.08,25.08,0,1,1,34.36-24.31h-23a2.22,2.22,0,0,0-4.24,1,2.11,2.11,0,0,0,1.16,1.93l11.19,4.64A26.64,26.64,0,0,1,491,93.11a26.19,26.19,0,0,1-26.37,26.12C449.06,119.23,438.51,106.49,438.51,91.44Z"
        transform="translate(-63.64 -14.37)" />
    <path id="W" class="cls-1"
        d="M661.87,14.37v71.8a33,33,0,0,1-54.69,25,33,33,0,0,1-54.68-25V14.37h22.9v71.8a10.23,10.23,0,1,0,20.46,0V14.37h22.77v71.8a10.23,10.23,0,1,0,20.46,0V14.37Z"
        transform="translate(-63.64 -14.37)" />
    <path id="O" class="cls-1"
        d="M753.47,78.19a41,41,0,1,1-41-41A41.07,41.07,0,0,1,753.47,78.19Zm-59.31,0a18.27,18.27,0,1,0,18.27-18.27A18.24,18.24,0,0,0,694.16,78.19Z"
        transform="translate(-63.64 -14.37)" />
    <path id="R" class="cls-1"
        d="M803.52,37.15V59.92a18.15,18.15,0,0,0-18.14,18.27v41H762.61V37.15h22.77v4.24A40.54,40.54,0,0,1,803.52,37.15Z"
        transform="translate(-63.64 -14.37)" />
    <path id="K" class="cls-1"
        d="M812.66,14.37h22.77V64.55l20-27.4h28.3L857.56,72.79l33.33,46.44h-28L835.43,81v38.21H812.66Z"
        transform="translate(-63.64 -14.37)" />
    <path id="T-2" data-name="T" class="cls-1" d="M392.71,149.05v82.09H369.93V149.05H347V126.28h68.45v22.77Z"
        transform="translate(-63.64 -14.37)" />
    <path id="O-2" data-name="O" class="cls-1"
        d="M495.51,190.09a41,41,0,1,1-41.05-41A41.08,41.08,0,0,1,495.51,190.09Zm-59.32,0a18.27,18.27,0,1,0,18.27-18.27A18.23,18.23,0,0,0,436.19,190.09Z"
        transform="translate(-63.64 -14.37)" />
    <path id="G" class="cls-1"
        d="M541.7,263.43a41,41,0,0,1-38.47-26.76h27.15a17.6,17.6,0,0,0,11.32,4,18.24,18.24,0,0,0,17.62-13.51,42.2,42.2,0,0,1-17.62,4A41,41,0,1,1,560,153.3v-4.25h22.77v73.21A41.1,41.1,0,0,1,541.7,263.43Zm-18.14-73.34a18.21,18.21,0,1,0,18.14-18.27A18.11,18.11,0,0,0,523.56,190.09Z"
        transform="translate(-63.64 -14.37)" />
    <path id="E2" class="cls-1"
        d="M673.19,190.09a38.44,38.44,0,0,1-.39,5.54H615.16A18.17,18.17,0,0,0,640.9,206.3H670a41.16,41.16,0,1,1,3.22-16.21ZM648.62,182a18,18,0,0,0-32.3,0Z"
        transform="translate(-63.64 -14.37)" />
    <path id="T-3" data-name="T" class="cls-1"
        d="M684.39,161.79h-8.24V149.05h8.24V126.28h22.77v22.77h8.23v12.74h-8.23v39.75a6.89,6.89,0,0,0,7,6.82h2.06v22.78h-2.06a29.63,29.63,0,0,1-29.72-29.6Z"
        transform="translate(-63.64 -14.37)" />
    <path id="H" class="cls-1"
        d="M801.21,185.59v45.55H778.44V185.59a13.71,13.71,0,1,0-27.41,0v45.55H728.26V126.28H751v25.47a37.42,37.42,0,0,1,13.64-2.7A36.85,36.85,0,0,1,801.21,185.59Z"
        transform="translate(-63.64 -14.37)" />
    <path id="E3" class="cls-1"
        d="M889.21,190.09a38.45,38.45,0,0,1-.38,5.54H831.19a18.16,18.16,0,0,0,25.73,10.67H886a41.18,41.18,0,1,1,3.21-16.21ZM864.64,182a18,18,0,0,0-32.29,0Z"
        transform="translate(-63.64 -14.37)" />
    <path id="R-2" data-name="R" class="cls-1"
        d="M938,149.05v22.77a18.15,18.15,0,0,0-18.14,18.27v41H897.07V149.05h22.77v4.25A40.38,40.38,0,0,1,938,149.05Z"
        transform="translate(-63.64 -14.37)" />
    <rect id="LINE" class="cls-1" y="150.1" width="277.78" height="20.55" />
</svg>