<svg id="Layer_1" data-name="Layer 1" xmlns="http://www.w3.org/2000/svg" viewBox="0 0 5502.43 1926.03">
    <line x1="86.78" y1="1545.43" x2="1338.75" y2="1545.43"/>
    <circle cx="3590.14" cy="605.98" r="251.28" />
    <circle cx="2086.61" cy="1516.63" r="255.66" transform="translate(-461.27 1919.67) rotate(-45)" />
    <ellipse cx="2673.29" cy="1487.35" rx="238.75" ry="230.25" />
    <path d="M4502.08,1509h442s21.57-231-214.32-249.24C4729.73,1259.75,4503,1257.27,4502.08,1509Z" />
    <path d="M4930,1665.32s-75.43,127.28-253,95.86c0,0-188.09-51.83-175-252.19" />
    <path d="M3043.2,1509h442s21.57-231-214.32-249.24C3270.85,1259.75,3044.14,1257.27,3043.2,1509Z" />
    <path d="M3471.16,1665.32s-75.43,127.28-253,95.86c0,0-188.09-51.83-175-252.19" />
    <path d="M760.49,597h442S1224,366,988.14,347.74C988.14,347.74,761.42,345.27,760.49,597Z" />
    <path d="M1188.45,753.32s-75.43,127.28-253,95.85c0,0-188.09-51.83-175-252.19" />
    <polyline points="2394.07 155.06 2627.93 849.81 2852.98 153.05" />
    <polyline points="2854.23 153.18 3089.3 849.81 3314.35 153.05" />
    <path
        d="M2060.54,407.83s-145.7-106.78-291.4-11c0,0-95.8,85.83,22,163.67,0,0,65.86,34.92,166.65,56.88,0,0,135.72,32.93,112.77,140.71,0,0-17,99.79-169.65,101.79,0,0-116.76-5-193.6-74.85" />
    <path d="M1346.46,182.23V730.71s9.85,177.15,205.3,121.77" />
    <path d="M4184.15,352.76s-189.34,8.86-212.59,218.13" />
    <path
        d="M2669.42,1919.13c-32.77,0-70.73-4.14-107-17.74-.88-.4-85.59-38.45-106.52-59.38l.71-.71c20.8,20.81,105.34,58.78,106.19,59.16,53.55,20.08,110.85,19.45,149.49,15.39,41.89-4.41,71.48-13.69,71.77-13.78a182.34,182.34,0,0,0,74.13-53.64c15.89-19.18,28.56-42.17,37.68-68.33,15.52-44.56,15.29-83.36,15.29-83.75v-434.3h1v434.3c0,.38.23,39.36-15.35,84.08-9.15,26.28-21.89,49.37-37.85,68.64A183.49,183.49,0,0,1,2784.4,1903c-.33.1-30,9.41-72,13.83A411.37,411.37,0,0,1,2669.42,1919.13Z" />
    <path
        d="M3760.83,1763.41h-2.52c-25.11-1.75-46.38-9.56-63.24-23.23-13.48-10.93-24.17-25.6-31.79-43.61-13-30.62-12.46-60.71-12.46-61v-547.8h1v547.78c0,.31-.48,30.21,12.4,60.64,7.55,17.85,18.15,32.38,31.5,43.21,16.69,13.52,37.76,21.26,62.64,23,.54,0,57.53,1.08,88.9-15.23l.46.89C3819.92,1762.51,3772.26,1763.41,3760.83,1763.41Z" />
    <path d="M3962.79,1454s19.45-141.86,140.72-184.19c0,0,96-43.69,201.35,29.74,0,0,69.79,57.21,72.08,162.46v299.74" />
    <path d="M5296.43,1256.41S5079.8,1267.28,5078.3,1542" />
    <polyline points="256.72 158.05 256.72 849.67 700.88 849.67"/>
    <path d="M2911.15,1262.05v434.3s9.49,229.8-241.73,222.78c0,0-102.69,10.59-212.82-77.83" />
    <path d="M3847.72,1748.05c-229.36,73.48-196.9-151.29-196.9-151.29v-509" />
    <path
        d="M1658.59,181.27a1.12,1.12,0,0,1,.09.84c-.64.64-.49.94.46.88,1.08,1.71,2.28,2.53,2.95,4.7a45.42,45.42,0,0,1,1.54,13.73,76,76,0,0,1-6,27.81c-7.24,17.77-20,32.67-32.93,46.55-5.26,5.64,3.21,14.14,8.49,8.48,20.33-21.81,39.56-46.75,42.13-77.54,1-11.32.61-31.09-12.85-35.24-5.89-1.82-12.76.37-15,6.45-1.88,5-.17,11.48,5,13.7,3,1.28,6.39.87,8.21-2.15,1.5-2.51.82-6.94-2.16-8.21Z" />
    <line x1="3967.64" y1="360.83" x2="3967.64" y2="851.33"/>
    <line x1="4267.6" y1="142.53" x2="4267.6" y2="865.18"/>
    <line x1="3962.76" y1="1061.98" x2="3962.76" y2="1762.29"/>
    <line x1="3559.59" y1="1267.51" x2="3851.3" y2="1267.51"/>
    <line x1="5077.24" y1="1259.15" x2="5077.24" y2="1780.55"/>
    <line x1="4637.88" y1="359.89" x2="4267.92" y2="701.12"/>
    <line x1="4654.61" y1="857.47" x2="4403.93" y2="575.44"/>
    <line x1="1248.94" y1="1073.19" x2="1833.85" y2="1073.19"/>
    <line x1="1535.83" y1="1774.03" x2="1535.83" y2="1076.02"/>
    <line x1="1551.24" y1="358.65" x2="1254.88" y2="358.65"/></svg>