<?xml version="1.0" encoding="utf-8"?>
<!-- Generator: Adobe Illustrator 23.0.1, SVG Export Plug-In . SVG Version: 6.00 Build 0)  -->
 <svg version="1.1" xmlns="http://www.w3.org/2000/svg" xmlns:xlink="http://www.w3.org/1999/xlink"
                        x="0px" y="0px" viewBox="0 0 276.4 101.4" xml:space="preserve">
                        <path class="logo-dot"
                            d="M111.7,9.8c-2.7,0-4.9-2.2-4.9-4.9s2.2-4.9,4.9-4.9s4.9,2.2,4.9,4.9S114.4,9.8,111.7,9.8z" />
                        <path d="M99.1,23.5c0-3.8-3.6-6.8-8.1-6.8s-8.2,3-8.2,6.8l0,0c0,10.2,16.3,3.4,16.3,13.6c0,3.8-3.6,6.8-8.2,6.8
                                s-8.1-3-8.1-6.8" />
                        <circle cx="137.7" cy="30.2" r="13.8" />
                        <path d="M164.5,30.2c0-7.6,6.2-13.8,13.8-13.8S192,22.6,192,30.2V48" />
                        <path d="M137.7,58.3c7.6,0,13.8-6.2,13.8-13.8l0-32.3" />
                        <circle cx="217.1" cy="71.3" r="13.8" />
                        <line x1="230.9" y1="89.1" x2="230.9" y2="53.4" />
                        <line x1="164.5" y1="48" x2="164.5" y2="12.3" />
                        <line x1="111.7" y1="48" x2="111.7" y2="12.3" />
                        <path d="M243.6,30.2c0-7.6,6.2-13.8,13.8-13.8" />
                        <line x1="243.6" y1="48" x2="243.6" y2="12.3" />
                        <path d="M243.6,71.3c0-7.6,6.2-13.8,13.8-13.8" />
                        <line x1="243.6" y1="89.1" x2="243.6" y2="53.4" />
                        <line x1="17.9" y1="71.1" x2="155.5" y2="71.1" />
                        <circle cx="17.9" cy="30.2" r="13.8" />
                        <line x1="31.6" y1="48" x2="31.6" y2="0" />
                        <path class="st1"
                            d="M66.9,39.9c-5.4,5.4-14.1,5.4-19.4,0s-5.4-14.1,0-19.4s14.1-5.4,19.4,0c2.7,2.7,4,6.2,4,9.7h-27" />
                        <path class="st2"
                            d="M227.7,39.9c-5.4,5.4-14.1,5.4-19.4,0s-5.4-14.1,0-19.4s14.1-5.4,19.4,0c2.7,2.7,4,6.2,4,9.7h-27" />
                        <circle cx="178.2" cy="71.2" r="13.8" />
                        <line x1="164.5" y1="53.4" x2="164.5" y2="101.4" />
                        <path d="M265.1,46.6l0,27.1c0,6.2,5.1,11.3,11.3,11.3" />
                        <line x1="262.3" y1="57.9" x2="276.4" y2="57.9" />
                    </svg>